<?xml version="1.0" encoding="UTF-8" standalone="no"?>
<svg
   xmlns:dc="http://purl.org/dc/elements/1.1/"
   xmlns:cc="http://creativecommons.org/ns#"
   xmlns:rdf="http://www.w3.org/1999/02/22-rdf-syntax-ns#"
   xmlns:svg="http://www.w3.org/2000/svg"
   xmlns="http://www.w3.org/2000/svg"
   xmlns:sodipodi="http://sodipodi.sourceforge.net/DTD/sodipodi-0.dtd"
   xmlns:inkscape="http://www.inkscape.org/namespaces/inkscape"
   sodipodi:docname="grants.svg"
   inkscape:version="1.0 (4035a4fb49, 2020-05-01)"
   id="svg8"
   version="1.1"
   viewBox="0 0 195.08922 75.575798"
   height="75.575798mm"
   width="195.08922mm">
  <defs
     id="defs2" />
  <sodipodi:namedview
     inkscape:window-maximized="1"
     inkscape:window-y="-8"
     inkscape:window-x="-8"
     inkscape:window-height="684"
     inkscape:window-width="1366"
     fit-margin-bottom="0"
     fit-margin-right="0"
     fit-margin-left="0"
     fit-margin-top="0"
     showgrid="false"
     inkscape:document-rotation="0"
     inkscape:current-layer="layer1"
     inkscape:document-units="mm"
     inkscape:cy="-53.164538"
     inkscape:cx="187.10525"
     inkscape:zoom="0.35"
     inkscape:pageshadow="2"
     inkscape:pageopacity="0.0"
     borderopacity="1.0"
     bordercolor="#666666"
     pagecolor="#ffffff"
     id="base" />
  <metadata
     id="metadata5">
    <rdf:RDF>
      <cc:Work
         rdf:about="">
        <dc:format>image/svg+xml</dc:format>
        <dc:type
           rdf:resource="http://purl.org/dc/dcmitype/StillImage" />
        <dc:title></dc:title>
      </cc:Work>
    </rdf:RDF>
  </metadata>
  <g
     transform="translate(-10.593283,-162.23312)"
     id="layer1"
     inkscape:groupmode="layer"
     inkscape:label="Layer 1">
    <path
       id="path847"
       d="m 23.127933,237.62474 c -0.553214,-0.1392 -1.904309,-0.69121 -3.002434,-1.22667 -1.481768,-0.72254 -2.157714,-1.22882 -2.621457,-1.96344 -0.343677,-0.54441 -0.748753,-1.06641 -0.90017,-1.15999 -0.376475,-0.23268 -0.347836,-1.54806 0.04219,-1.93809 0.569247,-0.56924 1.204512,-0.34056 3.170783,1.14144 4.447094,3.35182 8.121136,3.37258 11.729374,0.0663 1.409811,-1.29184 2.001475,-2.12413 3.402039,-4.78566 0.932484,-1.77203 1.826863,-3.63858 1.987513,-4.1479 1.176129,-3.7288 2.124501,-7.74631 3.075731,-13.02946 0.431308,-2.39548 1.265352,-11.28946 1.14091,-12.16631 -0.06683,-0.47088 -0.330295,-0.15707 -1.216125,1.4485 -3.253394,5.89678 -8.536887,12.27589 -12.8356,15.49728 -2.883614,2.16093 -3.787303,2.65207 -5.738864,3.11899 -2.855538,0.68321 -5.996059,0.24656 -7.362739,-1.02368 -2.688311,-2.49862 -3.857849,-7.16173 -3.247475,-12.94814 0.173463,-1.64444 0.546258,-3.90761 0.828434,-5.02928 0.680043,-2.7032 2.587746,-7.5344 3.94838,-9.99915 0.602496,-1.09141 1.344496,-2.52016 1.648889,-3.175 0.484366,-1.04203 1.07299,-1.94234 2.24536,-3.43433 0.173791,-0.22117 0.878495,-1.15958 1.56601,-2.08535 2.091054,-2.8157 6.545347,-7.02949 8.715579,-8.245 0.574251,-0.32163 1.36013,-0.80897 1.746396,-1.08297 0.386265,-0.274 0.784992,-0.49819 0.886055,-0.49819 0.101066,0 0.558935,-0.17241 1.01749,-0.38314 1.627793,-0.74804 4.156369,-1.47444 6.180346,-1.77547 4.100061,-0.60981 9.792489,1.08826 11.181306,3.33542 0.865476,1.40036 0.619429,4.11486 -0.372978,4.11486 -0.199596,0 -1.159005,-0.35719 -2.13202,-0.79375 -1.575142,-0.70672 -2.04927,-0.79325 -4.324144,-0.78922 -1.624854,0.003 -3.247097,0.18432 -4.456036,0.49836 -2.465655,0.64049 -6.18807,2.67899 -7.988491,4.37472 -2.320831,2.18587 -6.570305,7.42472 -7.579593,9.3443 -0.516301,0.98196 -1.216069,2.16623 -1.55504,2.63172 -0.820574,1.12683 -3.707075,7.99491 -4.386965,10.43824 -0.599695,2.15513 -0.982681,7.33325 -0.687817,9.29955 0.109096,0.7275 0.463121,1.57062 0.855127,2.03649 0.952332,1.13178 2.101417,1.06804 4.474579,-0.24823 2.156662,-1.19618 6.77743,-5.65621 9.277859,-8.95513 0.850501,-1.12209 1.613866,-2.09971 1.696368,-2.17247 0.0825,-0.0728 0.431541,-0.60854 0.775645,-1.19062 0.344104,-0.58209 1.006618,-1.53533 1.472255,-2.11832 0.465638,-0.583 1.582106,-2.42847 2.481035,-4.10105 0.898933,-1.67258 1.742176,-3.21964 1.873875,-3.43792 1.024977,-1.69882 3.250351,-7.61274 3.564641,-9.47302 0.27426,-1.62332 1.591139,-2.69782 3.306385,-2.69782 1.515885,0 2.027849,0.39647 2.285508,1.76991 0.460573,2.45507 -1.22069,17.93369 -2.85405,26.27593 -0.29917,1.52797 -0.637739,3.3139 -0.75238,3.96875 -0.36326,2.07497 -2.329842,8.53631 -3.394565,11.15306 -1.41669,3.48179 -3.711337,7.80422 -5.025832,9.46718 -1.674167,2.11798 -4.212963,4.28313 -6.194841,5.28311 -1.60563,0.81014 -2.042168,0.90841 -4.362389,0.98199 -1.41802,0.045 -3.030848,-0.0321 -3.584062,-0.17132 z M 177.19524,222.73081 c -1.82013,-0.41963 -2.51947,-0.78749 -3.77031,-1.9832 -1.43545,-1.37218 -1.31933,-2.69314 0.23675,-2.69314 0.21554,0 1.18807,0.38621 2.16117,0.85825 1.5962,0.7743 2.00415,0.85841 4.17063,0.85989 2.20793,0.002 2.50479,-0.0623 3.68533,-0.7921 3.78743,-2.3414 3.58051,-8.14262 -0.58527,-16.40892 -1.73448,-3.44177 -2.19178,-4.08811 -2.19623,-3.1041 -0.003,0.57541 -2.4298,5.92918 -3.26404,7.19962 -0.33817,0.51497 -1.07987,1.65069 -1.64823,2.52382 -1.96318,3.01584 -4.55148,6.35471 -5.96763,7.69816 -3.72353,3.53236 -6.24517,5.05583 -8.80584,5.32011 -1.66241,0.17158 -3.10926,-0.40408 -4.65383,-1.8516 -1.60132,-1.50071 -3.24316,-4.85099 -3.87025,-7.89751 l -0.456,-2.21529 -2.53323,2.51577 c -4.69583,4.66347 -6.16036,5.54177 -9.31969,5.58917 -2.85022,0.0428 -4.06129,-0.89755 -4.98068,-3.86715 -0.49832,-1.60955 -0.57299,-2.47081 -0.57017,-6.57702 0.002,-2.59871 0.0737,-5.33715 0.15989,-6.08542 0.19063,-1.65569 -0.13041,-2.91606 -0.77439,-3.04013 -0.54616,-0.10523 -3.17973,2.52682 -4.48865,4.48606 -0.44869,0.6716 -1.3488,1.92225 -2.00025,2.77922 -0.65146,0.85697 -1.37125,1.91531 -1.59954,2.35188 -0.22829,0.43656 -0.72186,1.27328 -1.09681,1.85938 -0.37496,0.58609 -1.64739,3.02687 -2.82763,5.42395 -1.18024,2.39708 -2.41585,4.67047 -2.74581,5.05197 -1.27484,1.474 -2.75205,1.63294 -3.33268,0.35859 -0.35737,-0.78434 -0.37724,-2.79202 -0.0575,-5.81473 0.12312,-1.16416 0.191,-2.1515 0.15084,-2.19409 -0.0402,-0.0426 -0.83193,0.7246 -1.75949,1.70485 -2.24644,2.37405 -2.48412,2.58904 -4.34656,3.93163 -1.9804,1.42762 -3.49665,1.97273 -5.50115,1.97772 -1.14357,0.003 -1.74676,-0.13864 -2.31448,-0.54289 -1.85489,-1.3208 -2.8603,-3.89478 -3.290756,-8.42479 l -0.186251,-1.96006 -0.876618,1.03402 c -0.482142,0.56872 -1.152776,1.5018 -1.4903,2.07352 -1.741506,2.94985 -5.897877,6.23655 -7.886774,6.23655 -1.083159,0 -2.520995,-0.68012 -3.162814,-1.49606 -0.449587,-0.57156 -1.199676,-2.6504 -1.395148,-3.8666 -0.05415,-0.33694 -0.556111,0.0888 -1.793808,1.52129 -1.939362,2.24466 -5.498077,5.0598 -7.674098,6.07063 -3.078199,1.42992 -5.371295,0.47317 -6.9283,-2.89072 -0.592894,-1.28093 -0.612709,-1.558 -0.624382,-8.73125 -0.0066,-4.07458 -0.0364,-7.60256 -0.06615,-7.83996 -0.130278,-1.03962 -3.214177,-3.14106 -4.106857,-2.79851 -0.207381,0.0796 -0.461248,0.48014 -0.56415,0.89014 -0.102902,0.40999 -0.758288,2.05671 -1.456415,3.65939 -2.081938,4.77945 -3.770913,7.37612 -5.681078,8.73419 -1.44716,1.02889 -1.787737,1.10904 -2.265654,0.53319 -0.511074,-0.61581 -0.177776,-1.37399 2.157799,-4.90854 2.566702,-3.88431 3.722997,-6.1337 4.298614,-8.36226 0.518914,-2.00902 0.526241,-2.58688 0.03793,-2.99214 -0.714354,-0.59286 -1.556867,-3.72143 -1.53451,-5.69822 0.02336,-2.06505 0.818981,-4.96914 1.651252,-6.0272 0.291396,-0.37045 0.529809,-0.79684 0.529809,-0.94754 0,-0.77614 2.257545,-1.43406 3.071937,-0.89526 1.033841,0.68399 1.79432,4.27714 1.523032,7.19608 -0.211204,2.27249 -0.204896,2.28119 3.417816,4.71646 5.200542,3.49591 6.206427,5.54414 5.076556,10.33711 -1.254983,5.3237 -1.815772,9.77234 -1.465234,11.62346 0.269047,1.42077 0.360477,1.50732 1.556036,1.47307 1.779757,-0.051 4.671478,-2.26792 7.888346,-6.04762 2.536913,-2.98078 2.980177,-3.661 3.63972,-5.58539 2.678549,-7.81538 7.913039,-14.31104 12.847855,-15.94335 2.182802,-0.72201 3.956645,-0.7371 4.841345,-0.0412 1.33152,1.04737 1.01426,2.22632 -0.85584,3.18037 -5.142562,2.62354 -10.61362,9.0767 -11.936224,14.07888 -0.712478,2.69465 -0.930833,6.01238 -0.438378,6.66084 1.101755,1.45079 4.745123,-2.0723 7.180313,-6.94327 0.535435,-1.071 1.311609,-2.44022 1.72483,-3.04271 0.413221,-0.60249 1.340435,-2.34625 2.060479,-3.87502 1.48929,-3.16204 2.61262,-4.38508 3.76251,-4.09648 1.60729,0.40341 1.69984,1.08343 0.54356,3.99418 -1.31476,3.30973 -1.56796,4.84812 -1.57225,9.55269 -0.003,3.68481 0.0727,4.49422 0.53926,5.7413 0.60728,1.6231 1.03245,1.88103 2.65019,1.60771 1.59053,-0.26872 4.42542,-2.68979 8.22319,-7.02282 2.40868,-2.74816 2.93916,-3.97956 4.15407,-9.64283 0.59314,-2.76489 1.27262,-6.15818 1.50995,-7.54062 0.23733,-1.38245 0.58464,-2.88081 0.77181,-3.32968 0.52742,-1.2649 2.56975,-2.79647 3.93413,-2.95025 1.01324,-0.11421 1.21401,-0.0444 1.7189,0.59745 1.11829,1.42166 0.68452,4.52479 -1.44917,10.36728 -0.48926,1.33971 -0.88957,2.64944 -0.88957,2.91051 0,0.26107 -0.17653,1.30807 -0.39228,2.32666 -0.57499,2.71457 -0.52608,2.75577 0.90461,0.76184 2.62282,-3.65539 3.11058,-4.2443 5.93324,-7.16372 2.88683,-2.9858 4.41697,-4.04926 5.82619,-4.04926 1.13508,0 1.75339,0.47157 2.37135,1.80856 0.54736,1.18424 0.57043,1.58374 0.57043,9.87869 0,8.36875 0.0177,8.66842 0.55579,9.39271 0.44651,0.60107 0.79494,0.76391 1.77213,0.82824 1.46524,0.0965 2.52057,-0.38773 4.13331,-1.8964 2.24233,-2.09763 3.07689,-3.04074 4.38887,-4.95975 l 1.32073,-1.9318 0.16138,-7.02314 c 0.0888,-3.86274 0.29072,-7.79706 0.44881,-8.74294 0.15808,-0.94589 0.3407,-2.21589 0.4058,-2.82223 l 0.11837,-1.10243 h -1.18344 c -1.78494,0 -2.61435,-1.03737 -2.03549,-2.54585 0.18481,-0.48161 1.35666,-1.03262 2.7516,-1.29381 0.90001,-0.16852 0.95512,-0.24847 1.62453,-2.35662 1.55824,-4.90735 2.45648,-7.11497 4.27011,-10.49465 2.75907,-5.14152 5.20918,-7.40943 8.02088,-7.42444 2.43174,-0.013 3.40469,1.99681 3.39146,7.00565 -0.008,3.08306 -0.36797,6.42865 -0.9533,8.86354 -0.65479,2.72385 -0.76376,2.48112 0.99954,2.22657 0.8574,-0.12378 2.21376,-0.22891 3.01413,-0.23362 1.32866,-0.008 1.46285,0.0455 1.54315,0.61263 0.0521,0.36833 -0.14397,0.86807 -0.48177,1.22764 -0.56531,0.60174 -1.05321,0.76886 -4.64618,1.59152 l -1.865,0.42701 -0.88423,2.56423 c -0.48633,1.41033 -1.56039,3.81439 -2.38682,5.34236 -0.82642,1.52796 -1.57309,2.96894 -1.65927,3.20215 -0.0862,0.23322 -0.822,1.40669 -1.63516,2.60772 -0.81316,1.20103 -1.47847,2.24324 -1.47847,2.31602 0,0.0728 -0.35719,0.58332 -0.79375,1.13452 -0.66183,0.83563 -0.79256,1.23772 -0.78658,2.41933 0.031,6.13052 1.89983,13.35186 3.62509,14.0078 2.17371,0.82644 4.58927,-0.45683 8.35098,-4.4365 3.64486,-3.85603 7.91388,-10.81765 9.46217,-15.43021 0.40196,-1.19751 0.43825,-1.6549 0.20494,-2.58287 -0.44604,-1.77403 -0.13068,-5.49744 0.61038,-7.20671 0.97359,-2.24564 1.8494,-3.39559 3.02437,-3.97106 1.43925,-0.70491 2.0829,-0.6641 2.86725,0.18179 1.41373,1.52465 1.48631,4.15407 0.22509,8.15489 -0.36699,1.16417 -0.65923,2.44414 -0.64942,2.84438 0.01,0.40024 0.62486,1.73266 1.36676,2.96092 0.74191,1.22826 1.47068,2.58247 1.61949,3.00935 0.14881,0.42688 0.61731,1.41618 1.04111,2.19846 2.26498,4.1808 2.70206,5.78152 2.5885,9.47974 -0.0896,2.9181 -0.19822,3.39896 -1.21291,5.37017 -0.20974,0.40745 1.17168,0.15405 2.25644,-0.4139 2.51693,-1.31778 9.43116,-8.21454 9.9851,-9.95986 0.21423,-0.67498 1.81028,-1.65019 2.35724,-1.4403 1.20262,0.46149 0.56129,2.61419 -1.56778,5.26242 -0.58638,0.72937 -1.35479,1.74284 -1.70758,2.25216 -2.30625,3.32957 -7.18244,6.71198 -12.04293,8.35366 -1.90784,0.6444 -2.56042,0.72365 -6.61458,0.80323 -2.99318,0.0588 -4.98475,-0.0239 -5.95313,-0.24721 z m -17.24258,-30.20864 c 2.0948,-3.88991 3.79396,-8.19137 3.05544,-7.73494 -0.13252,0.0819 -1.19005,0.28092 -2.35008,0.44227 -1.16003,0.16134 -2.25189,0.43945 -2.42637,0.61801 -0.39328,0.40249 -1.0467,4.91299 -1.27357,8.79133 l -0.17025,2.91042 0.65627,-0.79375 c 0.36095,-0.43656 1.4898,-2.34156 2.50856,-4.23334 z m 3.56,-11.42016 c 0.5916,-0.0944 1.11139,-0.36468 1.26943,-0.65998 0.84887,-1.58613 2.27428,-11.06576 1.96951,-13.09811 -0.24424,-1.62874 -0.72219,-1.9009 -1.84041,-1.04798 -1.19245,0.90952 -1.78738,1.77501 -2.94944,4.29079 -1.51078,3.27074 -2.8181,7.30856 -3.15303,9.73852 l -0.17875,1.29683 1.94045,-0.18007 c 1.06724,-0.099 2.39125,-0.25204 2.94224,-0.34 z"
       style="fill:#9c2c38;fill-opacity:1;stroke-width:0.264583" />
  </g>
</svg>
